<mxfile host="app.diagrams.net" agent="Mozilla/5.0 (Windows NT 10.0; Win64; x64) AppleWebKit/537.36 (KHTML, like Gecko) Chrome/131.0.0.0 Safari/537.36" version="25.0.3">
  <diagram name="第 1 页" id="_QlsWhL8awDRomTz16vz">
    <mxGraphModel dx="1050" dy="530" grid="0" gridSize="10" guides="1" tooltips="1" connect="1" arrows="1" fold="1" page="1" pageScale="1" pageWidth="827" pageHeight="1169" math="0" shadow="0">
      <root>
        <mxCell id="0" />
        <mxCell id="1" parent="0" />
        <mxCell id="jZfTcSRhd4EUPfGEfvjz-1" value="业务流程、人员、组织机构等信息" style="ellipse;shape=cloud;whiteSpace=wrap;html=1;fillColor=#99CCFF;" vertex="1" parent="1">
          <mxGeometry x="40" y="70" width="280" height="140" as="geometry" />
        </mxCell>
        <mxCell id="jZfTcSRhd4EUPfGEfvjz-5" value="流程模型" style="shape=cylinder3;whiteSpace=wrap;html=1;boundedLbl=1;backgroundOutline=1;size=15;fillColor=#E1D5E7;" vertex="1" parent="1">
          <mxGeometry x="100" y="300" width="170" height="100" as="geometry" />
        </mxCell>
        <mxCell id="jZfTcSRhd4EUPfGEfvjz-6" value="流程日志" style="shape=cylinder3;whiteSpace=wrap;html=1;boundedLbl=1;backgroundOutline=1;size=15;fillColor=#9AC7BF;" vertex="1" parent="1">
          <mxGeometry x="518" y="300" width="170" height="100" as="geometry" />
        </mxCell>
        <mxCell id="jZfTcSRhd4EUPfGEfvjz-7" value="" style="shape=flexArrow;endArrow=classic;startArrow=classic;html=1;rounded=0;fillColor=#99FFCC;" edge="1" parent="1" source="jZfTcSRhd4EUPfGEfvjz-1">
          <mxGeometry width="100" height="100" relative="1" as="geometry">
            <mxPoint x="344" y="144.5" as="sourcePoint" />
            <mxPoint x="520" y="140" as="targetPoint" />
          </mxGeometry>
        </mxCell>
        <mxCell id="jZfTcSRhd4EUPfGEfvjz-9" value="支持/控制" style="text;html=1;align=center;verticalAlign=middle;resizable=0;points=[];autosize=1;strokeColor=none;fillColor=none;" vertex="1" parent="1">
          <mxGeometry x="379" y="110" width="70" height="30" as="geometry" />
        </mxCell>
        <mxCell id="jZfTcSRhd4EUPfGEfvjz-10" value="" style="endArrow=classic;html=1;rounded=0;entryX=0.519;entryY=0.964;entryDx=0;entryDy=0;entryPerimeter=0;" edge="1" parent="1" source="jZfTcSRhd4EUPfGEfvjz-5" target="jZfTcSRhd4EUPfGEfvjz-1">
          <mxGeometry width="50" height="50" relative="1" as="geometry">
            <mxPoint x="140" y="260" as="sourcePoint" />
            <mxPoint x="190" y="210" as="targetPoint" />
          </mxGeometry>
        </mxCell>
        <mxCell id="jZfTcSRhd4EUPfGEfvjz-12" value="" style="endArrow=classic;html=1;rounded=0;exitX=1;exitY=0;exitDx=0;exitDy=15;exitPerimeter=0;" edge="1" parent="1" source="jZfTcSRhd4EUPfGEfvjz-5">
          <mxGeometry width="50" height="50" relative="1" as="geometry">
            <mxPoint x="390" y="300" as="sourcePoint" />
            <mxPoint x="600" y="204" as="targetPoint" />
          </mxGeometry>
        </mxCell>
        <mxCell id="jZfTcSRhd4EUPfGEfvjz-13" value="" style="endArrow=classic;html=1;rounded=0;entryX=1;entryY=0;entryDx=0;entryDy=27.5;entryPerimeter=0;exitX=0;exitY=0;exitDx=0;exitDy=27.5;exitPerimeter=0;" edge="1" parent="1" source="jZfTcSRhd4EUPfGEfvjz-6" target="jZfTcSRhd4EUPfGEfvjz-5">
          <mxGeometry width="50" height="50" relative="1" as="geometry">
            <mxPoint x="420" y="380" as="sourcePoint" />
            <mxPoint x="510" y="328" as="targetPoint" />
          </mxGeometry>
        </mxCell>
        <mxCell id="jZfTcSRhd4EUPfGEfvjz-14" value="" style="endArrow=classic;startArrow=classic;html=1;rounded=0;exitX=1;exitY=0.5;exitDx=0;exitDy=0;exitPerimeter=0;entryX=0;entryY=0.5;entryDx=0;entryDy=0;entryPerimeter=0;" edge="1" parent="1" source="jZfTcSRhd4EUPfGEfvjz-5" target="jZfTcSRhd4EUPfGEfvjz-6">
          <mxGeometry width="50" height="50" relative="1" as="geometry">
            <mxPoint x="390" y="300" as="sourcePoint" />
            <mxPoint x="440" y="250" as="targetPoint" />
          </mxGeometry>
        </mxCell>
        <mxCell id="jZfTcSRhd4EUPfGEfvjz-15" value="" style="endArrow=classic;html=1;rounded=0;exitX=0;exitY=1;exitDx=0;exitDy=-15;exitPerimeter=0;entryX=1;entryY=1;entryDx=0;entryDy=-15;entryPerimeter=0;" edge="1" parent="1" source="jZfTcSRhd4EUPfGEfvjz-6" target="jZfTcSRhd4EUPfGEfvjz-5">
          <mxGeometry width="50" height="50" relative="1" as="geometry">
            <mxPoint x="390" y="300" as="sourcePoint" />
            <mxPoint x="280" y="360" as="targetPoint" />
          </mxGeometry>
        </mxCell>
        <mxCell id="jZfTcSRhd4EUPfGEfvjz-17" value="" style="endArrow=classic;html=1;rounded=0;edgeStyle=orthogonalEdgeStyle;exitX=0.714;exitY=0.929;exitDx=0;exitDy=0;exitPerimeter=0;entryX=0.5;entryY=0;entryDx=0;entryDy=0;entryPerimeter=0;" edge="1" parent="1" source="jZfTcSRhd4EUPfGEfvjz-1" target="jZfTcSRhd4EUPfGEfvjz-6">
          <mxGeometry width="50" height="50" relative="1" as="geometry">
            <mxPoint x="490" y="300" as="sourcePoint" />
            <mxPoint x="440" y="250" as="targetPoint" />
            <Array as="points">
              <mxPoint x="603" y="200" />
            </Array>
          </mxGeometry>
        </mxCell>
        <mxCell id="jZfTcSRhd4EUPfGEfvjz-18" value="" style="endArrow=classic;html=1;rounded=0;edgeStyle=orthogonalEdgeStyle;exitX=1;exitY=0;exitDx=0;exitDy=67.5;exitPerimeter=0;" edge="1" parent="1" source="jZfTcSRhd4EUPfGEfvjz-5">
          <mxGeometry width="50" height="50" relative="1" as="geometry">
            <mxPoint x="270" y="350" as="sourcePoint" />
            <mxPoint x="340" y="383" as="targetPoint" />
            <Array as="points">
              <mxPoint x="340" y="368" />
            </Array>
          </mxGeometry>
        </mxCell>
        <mxCell id="jZfTcSRhd4EUPfGEfvjz-19" value="" style="group" vertex="1" connectable="0" parent="1">
          <mxGeometry x="530" y="90" width="170" height="90" as="geometry" />
        </mxCell>
        <mxCell id="jZfTcSRhd4EUPfGEfvjz-2" value="软件系统" style="rounded=0;whiteSpace=wrap;html=1;fillColor=#CCFF99;" vertex="1" parent="jZfTcSRhd4EUPfGEfvjz-19">
          <mxGeometry x="24.285714285714285" width="145.7142857142857" height="67.5" as="geometry" />
        </mxCell>
        <mxCell id="jZfTcSRhd4EUPfGEfvjz-3" value="软件系统" style="rounded=0;whiteSpace=wrap;html=1;fillColor=#CCFF99;" vertex="1" parent="jZfTcSRhd4EUPfGEfvjz-19">
          <mxGeometry x="12.142857142857142" y="11.25" width="145.7142857142857" height="67.5" as="geometry" />
        </mxCell>
        <mxCell id="jZfTcSRhd4EUPfGEfvjz-4" value="软件系统" style="rounded=0;whiteSpace=wrap;html=1;fillColor=#CCFF99;" vertex="1" parent="jZfTcSRhd4EUPfGEfvjz-19">
          <mxGeometry y="22.5" width="145.7142857142857" height="67.5" as="geometry" />
        </mxCell>
        <mxCell id="jZfTcSRhd4EUPfGEfvjz-20" value="流程模型分析" style="text;html=1;align=center;verticalAlign=middle;resizable=0;points=[];autosize=1;strokeColor=none;fillColor=none;" vertex="1" parent="1">
          <mxGeometry x="90" y="238" width="100" height="30" as="geometry" />
        </mxCell>
        <mxCell id="jZfTcSRhd4EUPfGEfvjz-21" value="配置分析" style="text;html=1;align=center;verticalAlign=middle;resizable=0;points=[];autosize=1;strokeColor=none;fillColor=none;" vertex="1" parent="1">
          <mxGeometry x="350" y="238" width="70" height="30" as="geometry" />
        </mxCell>
        <mxCell id="jZfTcSRhd4EUPfGEfvjz-22" value="事件查询、交易等信息" style="text;html=1;align=center;verticalAlign=middle;resizable=0;points=[];autosize=1;strokeColor=none;fillColor=none;" vertex="1" parent="1">
          <mxGeometry x="595" y="228" width="140" height="30" as="geometry" />
        </mxCell>
        <mxCell id="jZfTcSRhd4EUPfGEfvjz-23" value="流程模型发现" style="text;html=1;align=center;verticalAlign=middle;resizable=0;points=[];autosize=1;strokeColor=none;fillColor=none;" vertex="1" parent="1">
          <mxGeometry x="360" y="300" width="100" height="30" as="geometry" />
        </mxCell>
        <mxCell id="jZfTcSRhd4EUPfGEfvjz-24" value="一致性校验" style="text;html=1;align=center;verticalAlign=middle;resizable=0;points=[];autosize=1;strokeColor=none;fillColor=none;" vertex="1" parent="1">
          <mxGeometry x="370" y="330" width="80" height="30" as="geometry" />
        </mxCell>
        <mxCell id="jZfTcSRhd4EUPfGEfvjz-25" value="流程模型增强" style="text;html=1;align=center;verticalAlign=middle;resizable=0;points=[];autosize=1;strokeColor=none;fillColor=none;" vertex="1" parent="1">
          <mxGeometry x="360" y="360" width="100" height="30" as="geometry" />
        </mxCell>
        <mxCell id="jZfTcSRhd4EUPfGEfvjz-27" value="h&lt;sub&gt;1&lt;/sub&gt;&lt;sup&gt;2&lt;/sup&gt;" style="rounded=0;whiteSpace=wrap;html=1;fillColor=#B9E0A5;" vertex="1" parent="1">
          <mxGeometry x="132" y="528" width="30" height="39" as="geometry" />
        </mxCell>
        <mxCell id="jZfTcSRhd4EUPfGEfvjz-28" value="h&lt;sub&gt;0&lt;/sub&gt;&lt;sup&gt;2&lt;/sup&gt;" style="rounded=0;whiteSpace=wrap;html=1;fillColor=#B9E0A5;" vertex="1" parent="1">
          <mxGeometry x="165" y="432" width="30" height="39" as="geometry" />
        </mxCell>
        <mxCell id="jZfTcSRhd4EUPfGEfvjz-29" value="h&lt;sub&gt;3&lt;/sub&gt;&lt;sup&gt;2&lt;/sup&gt;" style="rounded=0;whiteSpace=wrap;html=1;fillColor=#B9E0A5;" vertex="1" parent="1">
          <mxGeometry x="313" y="432" width="30" height="39" as="geometry" />
        </mxCell>
        <mxCell id="jZfTcSRhd4EUPfGEfvjz-30" value="h&lt;sub&gt;2&lt;/sub&gt;&lt;sup&gt;2&lt;/sup&gt;" style="rounded=0;whiteSpace=wrap;html=1;fillColor=#B9E0A5;" vertex="1" parent="1">
          <mxGeometry x="262" y="528" width="30" height="39" as="geometry" />
        </mxCell>
        <mxCell id="jZfTcSRhd4EUPfGEfvjz-31" value="h&lt;sub&gt;3&lt;/sub&gt;&lt;sup&gt;2&lt;/sup&gt;" style="rounded=0;whiteSpace=wrap;html=1;fillColor=#B9E0A5;" vertex="1" parent="1">
          <mxGeometry x="378" y="528" width="30" height="39" as="geometry" />
        </mxCell>
        <mxCell id="jZfTcSRhd4EUPfGEfvjz-32" value="&lt;span style=&quot;color: rgba(0, 0, 0, 0); font-family: monospace; font-size: 0px; text-align: start; text-wrap-mode: nowrap;&quot;&gt;%3CmxGraphModel%3E%3Croot%3E%3CmxCell%20id%3D%220%22%2F%3E%3CmxCell%20id%3D%221%22%20parent%3D%220%22%2F%3E%3CmxCell%20id%3D%222%22%20value%3D%22%22%20style%3D%22ellipse%3BwhiteSpace%3Dwrap%3Bhtml%3D1%3Baspect%3Dfixed%3B%22%20vertex%3D%221%22%20parent%3D%221%22%3E%3CmxGeometry%20x%3D%22203%22%20y%3D%22465%22%20width%3D%2214%22%20height%3D%2214%22%20as%3D%22geometry%22%2F%3E%3C%2FmxCell%3E%3C%2Froot%3E%3C%2FmxGraphModel%3E&lt;/span&gt;" style="ellipse;whiteSpace=wrap;html=1;aspect=fixed;fillColor=#B3B3B3;" vertex="1" parent="1">
          <mxGeometry x="203" y="471" width="14" height="14" as="geometry" />
        </mxCell>
        <mxCell id="jZfTcSRhd4EUPfGEfvjz-33" value="" style="ellipse;whiteSpace=wrap;html=1;aspect=fixed;fillColor=#B3B3B3;" vertex="1" parent="1">
          <mxGeometry x="292" y="465" width="14" height="14" as="geometry" />
        </mxCell>
        <mxCell id="jZfTcSRhd4EUPfGEfvjz-34" value="&lt;span style=&quot;color: rgba(0, 0, 0, 0); font-family: monospace; font-size: 0px; text-align: start; text-wrap-mode: nowrap;&quot;&gt;%3CmxGraphModel%3E%3Croot%3E%3CmxCell%20id%3D%220%22%2F%3E%3CmxCell%20id%3D%221%22%20parent%3D%220%22%2F%3E%3CmxCell%20id%3D%222%22%20value%3D%22%22%20style%3D%22ellipse%3BwhiteSpace%3Dwrap%3Bhtml%3D1%3Baspect%3Dfixed%3B%22%20vertex%3D%221%22%20parent%3D%221%22%3E%3CmxGeometry%20x%3D%22203%22%20y%3D%22465%22%20width%3D%2214%22%20height%3D%2214%22%20as%3D%22geometry%22%2F%3E%3C%2FmxCell%3E%3C%2Froot%3E%3C%2FmxGraphModel%3E&lt;/span&gt;" style="ellipse;whiteSpace=wrap;html=1;aspect=fixed;fillColor=#B3B3B3;" vertex="1" parent="1">
          <mxGeometry x="169" y="508" width="14" height="14" as="geometry" />
        </mxCell>
        <mxCell id="jZfTcSRhd4EUPfGEfvjz-35" value="&lt;span style=&quot;color: rgba(0, 0, 0, 0); font-family: monospace; font-size: 0px; text-align: start; text-wrap-mode: nowrap;&quot;&gt;%3CmxGraphModel%3E%3Croot%3E%3CmxCell%20id%3D%220%22%2F%3E%3CmxCell%20id%3D%221%22%20parent%3D%220%22%2F%3E%3CmxCell%20id%3D%222%22%20value%3D%22%22%20style%3D%22ellipse%3BwhiteSpace%3Dwrap%3Bhtml%3D1%3Baspect%3Dfixed%3B%22%20vertex%3D%221%22%20parent%3D%221%22%3E%3CmxGeometry%20x%3D%22203%22%20y%3D%22465%22%20width%3D%2214%22%20height%3D%2214%22%20as%3D%22geometry%22%2F%3E%3C%2FmxCell%3E%3C%2Froot%3E%3C%2FmxGraphModel%3E&lt;/span&gt;" style="ellipse;whiteSpace=wrap;html=1;aspect=fixed;fillColor=#B3B3B3;" vertex="1" parent="1">
          <mxGeometry x="270" y="508" width="14" height="14" as="geometry" />
        </mxCell>
        <mxCell id="jZfTcSRhd4EUPfGEfvjz-36" value="&lt;span style=&quot;color: rgba(0, 0, 0, 0); font-family: monospace; font-size: 0px; text-align: start; text-wrap-mode: nowrap;&quot;&gt;%3CmxGraphModel%3E%3Croot%3E%3CmxCell%20id%3D%220%22%2F%3E%3CmxCell%20id%3D%221%22%20parent%3D%220%22%2F%3E%3CmxCell%20id%3D%222%22%20value%3D%22%22%20style%3D%22ellipse%3BwhiteSpace%3Dwrap%3Bhtml%3D1%3Baspect%3Dfixed%3B%22%20vertex%3D%221%22%20parent%3D%221%22%3E%3CmxGeometry%20x%3D%22203%22%20y%3D%22465%22%20width%3D%2214%22%20height%3D%2214%22%20as%3D%22geometry%22%2F%3E%3C%2FmxCell%3E%3C%2Froot%3E%3C%2FmxGraphModel%3E&lt;/span&gt;" style="ellipse;whiteSpace=wrap;html=1;aspect=fixed;fillColor=#B3B3B3;" vertex="1" parent="1">
          <mxGeometry x="378" y="508" width="14" height="14" as="geometry" />
        </mxCell>
        <mxCell id="jZfTcSRhd4EUPfGEfvjz-39" value="" style="endArrow=none;html=1;rounded=0;exitX=1;exitY=0;exitDx=0;exitDy=0;entryX=0;entryY=1;entryDx=0;entryDy=0;" edge="1" parent="1" source="jZfTcSRhd4EUPfGEfvjz-34" target="jZfTcSRhd4EUPfGEfvjz-32">
          <mxGeometry width="50" height="50" relative="1" as="geometry">
            <mxPoint x="266" y="602" as="sourcePoint" />
            <mxPoint x="316" y="552" as="targetPoint" />
          </mxGeometry>
        </mxCell>
        <mxCell id="jZfTcSRhd4EUPfGEfvjz-40" value="" style="endArrow=none;html=1;rounded=0;exitX=1;exitY=0.5;exitDx=0;exitDy=0;entryX=0;entryY=0.5;entryDx=0;entryDy=0;" edge="1" parent="1" source="jZfTcSRhd4EUPfGEfvjz-34" target="jZfTcSRhd4EUPfGEfvjz-35">
          <mxGeometry width="50" height="50" relative="1" as="geometry">
            <mxPoint x="191" y="520" as="sourcePoint" />
            <mxPoint x="215" y="493" as="targetPoint" />
          </mxGeometry>
        </mxCell>
        <mxCell id="jZfTcSRhd4EUPfGEfvjz-41" value="" style="endArrow=none;html=1;rounded=0;exitX=0;exitY=0.5;exitDx=0;exitDy=0;entryX=1;entryY=0.5;entryDx=0;entryDy=0;" edge="1" parent="1" source="jZfTcSRhd4EUPfGEfvjz-33" target="jZfTcSRhd4EUPfGEfvjz-32">
          <mxGeometry width="50" height="50" relative="1" as="geometry">
            <mxPoint x="201" y="530" as="sourcePoint" />
            <mxPoint x="225" y="503" as="targetPoint" />
          </mxGeometry>
        </mxCell>
        <mxCell id="jZfTcSRhd4EUPfGEfvjz-42" value="" style="endArrow=none;html=1;rounded=0;exitX=1;exitY=0;exitDx=0;exitDy=0;entryX=0;entryY=1;entryDx=0;entryDy=0;" edge="1" parent="1" source="jZfTcSRhd4EUPfGEfvjz-35" target="jZfTcSRhd4EUPfGEfvjz-33">
          <mxGeometry width="50" height="50" relative="1" as="geometry">
            <mxPoint x="211" y="540" as="sourcePoint" />
            <mxPoint x="235" y="513" as="targetPoint" />
          </mxGeometry>
        </mxCell>
        <mxCell id="jZfTcSRhd4EUPfGEfvjz-43" value="" style="endArrow=none;html=1;rounded=0;exitX=0;exitY=0;exitDx=0;exitDy=0;entryX=1;entryY=0.5;entryDx=0;entryDy=0;entryPerimeter=0;" edge="1" parent="1" source="jZfTcSRhd4EUPfGEfvjz-36" target="jZfTcSRhd4EUPfGEfvjz-33">
          <mxGeometry width="50" height="50" relative="1" as="geometry">
            <mxPoint x="221" y="550" as="sourcePoint" />
            <mxPoint x="245" y="523" as="targetPoint" />
          </mxGeometry>
        </mxCell>
        <mxCell id="jZfTcSRhd4EUPfGEfvjz-44" value="h&lt;sub&gt;1&lt;/sub&gt;&lt;sup&gt;1&lt;/sup&gt;" style="rounded=0;whiteSpace=wrap;html=1;fillColor=#E6D0DE;" vertex="1" parent="1">
          <mxGeometry x="139" y="687" width="30" height="39" as="geometry" />
        </mxCell>
        <mxCell id="jZfTcSRhd4EUPfGEfvjz-45" value="h&lt;sub&gt;0&lt;/sub&gt;&lt;sup&gt;1&lt;/sup&gt;" style="rounded=0;whiteSpace=wrap;html=1;fillColor=#E6D0DE;" vertex="1" parent="1">
          <mxGeometry x="172" y="591" width="30" height="39" as="geometry" />
        </mxCell>
        <mxCell id="jZfTcSRhd4EUPfGEfvjz-46" value="h&lt;sub&gt;4&lt;/sub&gt;&lt;sup&gt;1&lt;/sup&gt;" style="rounded=0;whiteSpace=wrap;html=1;fillColor=#E6D0DE;" vertex="1" parent="1">
          <mxGeometry x="320" y="591" width="30" height="39" as="geometry" />
        </mxCell>
        <mxCell id="jZfTcSRhd4EUPfGEfvjz-47" value="h&lt;sub&gt;2&lt;/sub&gt;&lt;sup&gt;1&lt;/sup&gt;" style="rounded=0;whiteSpace=wrap;html=1;fillColor=#E6D0DE;" vertex="1" parent="1">
          <mxGeometry x="269" y="687" width="30" height="39" as="geometry" />
        </mxCell>
        <mxCell id="jZfTcSRhd4EUPfGEfvjz-48" value="h&lt;sub&gt;3&lt;/sub&gt;&lt;sup&gt;1&lt;/sup&gt;" style="rounded=0;whiteSpace=wrap;html=1;fillColor=#E6D0DE;" vertex="1" parent="1">
          <mxGeometry x="385" y="687" width="30" height="39" as="geometry" />
        </mxCell>
        <mxCell id="jZfTcSRhd4EUPfGEfvjz-49" value="&lt;span style=&quot;color: rgba(0, 0, 0, 0); font-family: monospace; font-size: 0px; text-align: start; text-wrap-mode: nowrap;&quot;&gt;%3CmxGraphModel%3E%3Croot%3E%3CmxCell%20id%3D%220%22%2F%3E%3CmxCell%20id%3D%221%22%20parent%3D%220%22%2F%3E%3CmxCell%20id%3D%222%22%20value%3D%22%22%20style%3D%22ellipse%3BwhiteSpace%3Dwrap%3Bhtml%3D1%3Baspect%3Dfixed%3B%22%20vertex%3D%221%22%20parent%3D%221%22%3E%3CmxGeometry%20x%3D%22203%22%20y%3D%22465%22%20width%3D%2214%22%20height%3D%2214%22%20as%3D%22geometry%22%2F%3E%3C%2FmxCell%3E%3C%2Froot%3E%3C%2FmxGraphModel%3E&lt;/span&gt;" style="ellipse;whiteSpace=wrap;html=1;aspect=fixed;fillColor=#B3B3B3;" vertex="1" parent="1">
          <mxGeometry x="210" y="630" width="14" height="14" as="geometry" />
        </mxCell>
        <mxCell id="jZfTcSRhd4EUPfGEfvjz-50" value="" style="ellipse;whiteSpace=wrap;html=1;aspect=fixed;fillColor=#B3B3B3;" vertex="1" parent="1">
          <mxGeometry x="299" y="624" width="14" height="14" as="geometry" />
        </mxCell>
        <mxCell id="jZfTcSRhd4EUPfGEfvjz-51" value="&lt;span style=&quot;color: rgba(0, 0, 0, 0); font-family: monospace; font-size: 0px; text-align: start; text-wrap-mode: nowrap;&quot;&gt;%3CmxGraphModel%3E%3Croot%3E%3CmxCell%20id%3D%220%22%2F%3E%3CmxCell%20id%3D%221%22%20parent%3D%220%22%2F%3E%3CmxCell%20id%3D%222%22%20value%3D%22%22%20style%3D%22ellipse%3BwhiteSpace%3Dwrap%3Bhtml%3D1%3Baspect%3Dfixed%3B%22%20vertex%3D%221%22%20parent%3D%221%22%3E%3CmxGeometry%20x%3D%22203%22%20y%3D%22465%22%20width%3D%2214%22%20height%3D%2214%22%20as%3D%22geometry%22%2F%3E%3C%2FmxCell%3E%3C%2Froot%3E%3C%2FmxGraphModel%3E&lt;/span&gt;" style="ellipse;whiteSpace=wrap;html=1;aspect=fixed;fillColor=#B3B3B3;" vertex="1" parent="1">
          <mxGeometry x="176" y="667" width="14" height="14" as="geometry" />
        </mxCell>
        <mxCell id="jZfTcSRhd4EUPfGEfvjz-52" value="&lt;span style=&quot;color: rgba(0, 0, 0, 0); font-family: monospace; font-size: 0px; text-align: start; text-wrap-mode: nowrap;&quot;&gt;%3CmxGraphModel%3E%3Croot%3E%3CmxCell%20id%3D%220%22%2F%3E%3CmxCell%20id%3D%221%22%20parent%3D%220%22%2F%3E%3CmxCell%20id%3D%222%22%20value%3D%22%22%20style%3D%22ellipse%3BwhiteSpace%3Dwrap%3Bhtml%3D1%3Baspect%3Dfixed%3B%22%20vertex%3D%221%22%20parent%3D%221%22%3E%3CmxGeometry%20x%3D%22203%22%20y%3D%22465%22%20width%3D%2214%22%20height%3D%2214%22%20as%3D%22geometry%22%2F%3E%3C%2FmxCell%3E%3C%2Froot%3E%3C%2FmxGraphModel%3E&lt;/span&gt;" style="ellipse;whiteSpace=wrap;html=1;aspect=fixed;fillColor=#B3B3B3;" vertex="1" parent="1">
          <mxGeometry x="277" y="667" width="14" height="14" as="geometry" />
        </mxCell>
        <mxCell id="jZfTcSRhd4EUPfGEfvjz-53" value="&lt;span style=&quot;color: rgba(0, 0, 0, 0); font-family: monospace; font-size: 0px; text-align: start; text-wrap-mode: nowrap;&quot;&gt;%3CmxGraphModel%3E%3Croot%3E%3CmxCell%20id%3D%220%22%2F%3E%3CmxCell%20id%3D%221%22%20parent%3D%220%22%2F%3E%3CmxCell%20id%3D%222%22%20value%3D%22%22%20style%3D%22ellipse%3BwhiteSpace%3Dwrap%3Bhtml%3D1%3Baspect%3Dfixed%3B%22%20vertex%3D%221%22%20parent%3D%221%22%3E%3CmxGeometry%20x%3D%22203%22%20y%3D%22465%22%20width%3D%2214%22%20height%3D%2214%22%20as%3D%22geometry%22%2F%3E%3C%2FmxCell%3E%3C%2Froot%3E%3C%2FmxGraphModel%3E&lt;/span&gt;" style="ellipse;whiteSpace=wrap;html=1;aspect=fixed;fillColor=#B3B3B3;" vertex="1" parent="1">
          <mxGeometry x="385" y="667" width="14" height="14" as="geometry" />
        </mxCell>
        <mxCell id="jZfTcSRhd4EUPfGEfvjz-54" value="" style="endArrow=none;html=1;rounded=0;exitX=1;exitY=0;exitDx=0;exitDy=0;entryX=0;entryY=1;entryDx=0;entryDy=0;" edge="1" parent="1" source="jZfTcSRhd4EUPfGEfvjz-51" target="jZfTcSRhd4EUPfGEfvjz-49">
          <mxGeometry width="50" height="50" relative="1" as="geometry">
            <mxPoint x="273" y="761" as="sourcePoint" />
            <mxPoint x="323" y="711" as="targetPoint" />
          </mxGeometry>
        </mxCell>
        <mxCell id="jZfTcSRhd4EUPfGEfvjz-55" value="" style="endArrow=none;html=1;rounded=0;exitX=1;exitY=0.5;exitDx=0;exitDy=0;entryX=0;entryY=0.5;entryDx=0;entryDy=0;" edge="1" parent="1" source="jZfTcSRhd4EUPfGEfvjz-51" target="jZfTcSRhd4EUPfGEfvjz-52">
          <mxGeometry width="50" height="50" relative="1" as="geometry">
            <mxPoint x="198" y="679" as="sourcePoint" />
            <mxPoint x="222" y="652" as="targetPoint" />
          </mxGeometry>
        </mxCell>
        <mxCell id="jZfTcSRhd4EUPfGEfvjz-56" value="" style="endArrow=none;html=1;rounded=0;exitX=0;exitY=0.5;exitDx=0;exitDy=0;entryX=1;entryY=0.5;entryDx=0;entryDy=0;" edge="1" parent="1" source="jZfTcSRhd4EUPfGEfvjz-50" target="jZfTcSRhd4EUPfGEfvjz-49">
          <mxGeometry width="50" height="50" relative="1" as="geometry">
            <mxPoint x="208" y="689" as="sourcePoint" />
            <mxPoint x="232" y="662" as="targetPoint" />
          </mxGeometry>
        </mxCell>
        <mxCell id="jZfTcSRhd4EUPfGEfvjz-57" value="" style="endArrow=none;html=1;rounded=0;exitX=1;exitY=0;exitDx=0;exitDy=0;entryX=0;entryY=1;entryDx=0;entryDy=0;" edge="1" parent="1" source="jZfTcSRhd4EUPfGEfvjz-52" target="jZfTcSRhd4EUPfGEfvjz-50">
          <mxGeometry width="50" height="50" relative="1" as="geometry">
            <mxPoint x="218" y="699" as="sourcePoint" />
            <mxPoint x="242" y="672" as="targetPoint" />
          </mxGeometry>
        </mxCell>
        <mxCell id="jZfTcSRhd4EUPfGEfvjz-58" value="" style="endArrow=none;html=1;rounded=0;exitX=0;exitY=0;exitDx=0;exitDy=0;entryX=1;entryY=0.5;entryDx=0;entryDy=0;entryPerimeter=0;" edge="1" parent="1" source="jZfTcSRhd4EUPfGEfvjz-53" target="jZfTcSRhd4EUPfGEfvjz-50">
          <mxGeometry width="50" height="50" relative="1" as="geometry">
            <mxPoint x="228" y="709" as="sourcePoint" />
            <mxPoint x="252" y="682" as="targetPoint" />
          </mxGeometry>
        </mxCell>
        <mxCell id="jZfTcSRhd4EUPfGEfvjz-74" value="h&lt;sub&gt;1&lt;/sub&gt;&lt;sup&gt;0&lt;/sup&gt;" style="rounded=0;whiteSpace=wrap;html=1;fillColor=#FFE6CC;" vertex="1" parent="1">
          <mxGeometry x="146" y="840" width="30" height="39" as="geometry" />
        </mxCell>
        <mxCell id="jZfTcSRhd4EUPfGEfvjz-75" value="h&lt;sub&gt;0&lt;/sub&gt;&lt;sup&gt;0&lt;/sup&gt;" style="rounded=0;whiteSpace=wrap;html=1;fillColor=#FFE6CC;" vertex="1" parent="1">
          <mxGeometry x="179" y="744" width="30" height="39" as="geometry" />
        </mxCell>
        <mxCell id="jZfTcSRhd4EUPfGEfvjz-76" value="h&lt;sub&gt;4&lt;/sub&gt;&lt;sup&gt;0&lt;/sup&gt;" style="rounded=0;whiteSpace=wrap;html=1;fillColor=#FFE6CC;" vertex="1" parent="1">
          <mxGeometry x="327" y="744" width="30" height="39" as="geometry" />
        </mxCell>
        <mxCell id="jZfTcSRhd4EUPfGEfvjz-77" value="h&lt;sub&gt;2&lt;/sub&gt;&lt;sup&gt;0&lt;/sup&gt;" style="rounded=0;whiteSpace=wrap;html=1;fillColor=#FFE6CC;" vertex="1" parent="1">
          <mxGeometry x="276" y="840" width="30" height="39" as="geometry" />
        </mxCell>
        <mxCell id="jZfTcSRhd4EUPfGEfvjz-78" value="h&lt;sub&gt;3&lt;/sub&gt;&lt;sup&gt;0&lt;/sup&gt;" style="rounded=0;whiteSpace=wrap;html=1;fillColor=#FFE6CC;" vertex="1" parent="1">
          <mxGeometry x="392" y="840" width="30" height="39" as="geometry" />
        </mxCell>
        <mxCell id="jZfTcSRhd4EUPfGEfvjz-79" value="&lt;span style=&quot;color: rgba(0, 0, 0, 0); font-family: monospace; font-size: 0px; text-align: start; text-wrap-mode: nowrap;&quot;&gt;%3CmxGraphModel%3E%3Croot%3E%3CmxCell%20id%3D%220%22%2F%3E%3CmxCell%20id%3D%221%22%20parent%3D%220%22%2F%3E%3CmxCell%20id%3D%222%22%20value%3D%22%22%20style%3D%22ellipse%3BwhiteSpace%3Dwrap%3Bhtml%3D1%3Baspect%3Dfixed%3B%22%20vertex%3D%221%22%20parent%3D%221%22%3E%3CmxGeometry%20x%3D%22203%22%20y%3D%22465%22%20width%3D%2214%22%20height%3D%2214%22%20as%3D%22geometry%22%2F%3E%3C%2FmxCell%3E%3C%2Froot%3E%3C%2FmxGraphModel%3E&lt;/span&gt;" style="ellipse;whiteSpace=wrap;html=1;aspect=fixed;fillColor=#B3B3B3;" vertex="1" parent="1">
          <mxGeometry x="217" y="783" width="14" height="14" as="geometry" />
        </mxCell>
        <mxCell id="jZfTcSRhd4EUPfGEfvjz-80" value="" style="ellipse;whiteSpace=wrap;html=1;aspect=fixed;fillColor=#B3B3B3;" vertex="1" parent="1">
          <mxGeometry x="306" y="777" width="14" height="14" as="geometry" />
        </mxCell>
        <mxCell id="jZfTcSRhd4EUPfGEfvjz-81" value="&lt;span style=&quot;color: rgba(0, 0, 0, 0); font-family: monospace; font-size: 0px; text-align: start; text-wrap-mode: nowrap;&quot;&gt;%3CmxGraphModel%3E%3Croot%3E%3CmxCell%20id%3D%220%22%2F%3E%3CmxCell%20id%3D%221%22%20parent%3D%220%22%2F%3E%3CmxCell%20id%3D%222%22%20value%3D%22%22%20style%3D%22ellipse%3BwhiteSpace%3Dwrap%3Bhtml%3D1%3Baspect%3Dfixed%3B%22%20vertex%3D%221%22%20parent%3D%221%22%3E%3CmxGeometry%20x%3D%22203%22%20y%3D%22465%22%20width%3D%2214%22%20height%3D%2214%22%20as%3D%22geometry%22%2F%3E%3C%2FmxCell%3E%3C%2Froot%3E%3C%2FmxGraphModel%3E&lt;/span&gt;" style="ellipse;whiteSpace=wrap;html=1;aspect=fixed;fillColor=#B3B3B3;" vertex="1" parent="1">
          <mxGeometry x="183" y="820" width="14" height="14" as="geometry" />
        </mxCell>
        <mxCell id="jZfTcSRhd4EUPfGEfvjz-82" value="&lt;span style=&quot;color: rgba(0, 0, 0, 0); font-family: monospace; font-size: 0px; text-align: start; text-wrap-mode: nowrap;&quot;&gt;%3CmxGraphModel%3E%3Croot%3E%3CmxCell%20id%3D%220%22%2F%3E%3CmxCell%20id%3D%221%22%20parent%3D%220%22%2F%3E%3CmxCell%20id%3D%222%22%20value%3D%22%22%20style%3D%22ellipse%3BwhiteSpace%3Dwrap%3Bhtml%3D1%3Baspect%3Dfixed%3B%22%20vertex%3D%221%22%20parent%3D%221%22%3E%3CmxGeometry%20x%3D%22203%22%20y%3D%22465%22%20width%3D%2214%22%20height%3D%2214%22%20as%3D%22geometry%22%2F%3E%3C%2FmxCell%3E%3C%2Froot%3E%3C%2FmxGraphModel%3E&lt;/span&gt;" style="ellipse;whiteSpace=wrap;html=1;aspect=fixed;fillColor=#B3B3B3;" vertex="1" parent="1">
          <mxGeometry x="284" y="820" width="14" height="14" as="geometry" />
        </mxCell>
        <mxCell id="jZfTcSRhd4EUPfGEfvjz-83" value="&lt;span style=&quot;color: rgba(0, 0, 0, 0); font-family: monospace; font-size: 0px; text-align: start; text-wrap-mode: nowrap;&quot;&gt;%3CmxGraphModel%3E%3Croot%3E%3CmxCell%20id%3D%220%22%2F%3E%3CmxCell%20id%3D%221%22%20parent%3D%220%22%2F%3E%3CmxCell%20id%3D%222%22%20value%3D%22%22%20style%3D%22ellipse%3BwhiteSpace%3Dwrap%3Bhtml%3D1%3Baspect%3Dfixed%3B%22%20vertex%3D%221%22%20parent%3D%221%22%3E%3CmxGeometry%20x%3D%22203%22%20y%3D%22465%22%20width%3D%2214%22%20height%3D%2214%22%20as%3D%22geometry%22%2F%3E%3C%2FmxCell%3E%3C%2Froot%3E%3C%2FmxGraphModel%3E&lt;/span&gt;" style="ellipse;whiteSpace=wrap;html=1;aspect=fixed;fillColor=#B3B3B3;" vertex="1" parent="1">
          <mxGeometry x="392" y="820" width="14" height="14" as="geometry" />
        </mxCell>
        <mxCell id="jZfTcSRhd4EUPfGEfvjz-84" value="" style="endArrow=none;html=1;rounded=0;exitX=1;exitY=0;exitDx=0;exitDy=0;entryX=0;entryY=1;entryDx=0;entryDy=0;" edge="1" parent="1" source="jZfTcSRhd4EUPfGEfvjz-81" target="jZfTcSRhd4EUPfGEfvjz-79">
          <mxGeometry width="50" height="50" relative="1" as="geometry">
            <mxPoint x="280" y="914" as="sourcePoint" />
            <mxPoint x="330" y="864" as="targetPoint" />
          </mxGeometry>
        </mxCell>
        <mxCell id="jZfTcSRhd4EUPfGEfvjz-85" value="" style="endArrow=none;html=1;rounded=0;exitX=1;exitY=0.5;exitDx=0;exitDy=0;entryX=0;entryY=0.5;entryDx=0;entryDy=0;" edge="1" parent="1" source="jZfTcSRhd4EUPfGEfvjz-81" target="jZfTcSRhd4EUPfGEfvjz-82">
          <mxGeometry width="50" height="50" relative="1" as="geometry">
            <mxPoint x="205" y="832" as="sourcePoint" />
            <mxPoint x="229" y="805" as="targetPoint" />
          </mxGeometry>
        </mxCell>
        <mxCell id="jZfTcSRhd4EUPfGEfvjz-86" value="" style="endArrow=none;html=1;rounded=0;exitX=0;exitY=0.5;exitDx=0;exitDy=0;entryX=1;entryY=0.5;entryDx=0;entryDy=0;" edge="1" parent="1" source="jZfTcSRhd4EUPfGEfvjz-80" target="jZfTcSRhd4EUPfGEfvjz-79">
          <mxGeometry width="50" height="50" relative="1" as="geometry">
            <mxPoint x="215" y="842" as="sourcePoint" />
            <mxPoint x="239" y="815" as="targetPoint" />
          </mxGeometry>
        </mxCell>
        <mxCell id="jZfTcSRhd4EUPfGEfvjz-87" value="" style="endArrow=none;html=1;rounded=0;exitX=1;exitY=0;exitDx=0;exitDy=0;entryX=0;entryY=1;entryDx=0;entryDy=0;" edge="1" parent="1" source="jZfTcSRhd4EUPfGEfvjz-82" target="jZfTcSRhd4EUPfGEfvjz-80">
          <mxGeometry width="50" height="50" relative="1" as="geometry">
            <mxPoint x="225" y="852" as="sourcePoint" />
            <mxPoint x="249" y="825" as="targetPoint" />
          </mxGeometry>
        </mxCell>
        <mxCell id="jZfTcSRhd4EUPfGEfvjz-88" value="" style="endArrow=none;html=1;rounded=0;exitX=0;exitY=0;exitDx=0;exitDy=0;entryX=1;entryY=0.5;entryDx=0;entryDy=0;entryPerimeter=0;" edge="1" parent="1" source="jZfTcSRhd4EUPfGEfvjz-83" target="jZfTcSRhd4EUPfGEfvjz-80">
          <mxGeometry width="50" height="50" relative="1" as="geometry">
            <mxPoint x="235" y="862" as="sourcePoint" />
            <mxPoint x="259" y="835" as="targetPoint" />
          </mxGeometry>
        </mxCell>
        <mxCell id="jZfTcSRhd4EUPfGEfvjz-89" value="X&lt;sub&gt;0&lt;/sub&gt; = MEAN(h&lt;sup&gt;0&lt;/sup&gt;)" style="text;html=1;align=center;verticalAlign=middle;resizable=0;points=[];autosize=1;strokeColor=none;fillColor=none;" vertex="1" parent="1">
          <mxGeometry x="504" y="797" width="100" height="32" as="geometry" />
        </mxCell>
        <mxCell id="jZfTcSRhd4EUPfGEfvjz-90" value="X&lt;sub&gt;0&lt;/sub&gt; = MEAN(h&lt;sup&gt;0&lt;/sup&gt;)" style="text;html=1;align=center;verticalAlign=middle;resizable=0;points=[];autosize=1;strokeColor=none;fillColor=none;" vertex="1" parent="1">
          <mxGeometry x="504" y="667" width="100" height="32" as="geometry" />
        </mxCell>
        <mxCell id="jZfTcSRhd4EUPfGEfvjz-91" value="X&lt;sub&gt;0&lt;/sub&gt; = MEAN(h&lt;sup&gt;0&lt;/sup&gt;)" style="text;html=1;align=center;verticalAlign=middle;resizable=0;points=[];autosize=1;strokeColor=none;fillColor=none;" vertex="1" parent="1">
          <mxGeometry x="504" y="531.5" width="100" height="32" as="geometry" />
        </mxCell>
        <mxCell id="jZfTcSRhd4EUPfGEfvjz-93" value="" style="endArrow=classic;html=1;rounded=0;exitX=0.988;exitY=0.481;exitDx=0;exitDy=0;exitPerimeter=0;" edge="1" parent="1" source="jZfTcSRhd4EUPfGEfvjz-89" target="jZfTcSRhd4EUPfGEfvjz-94">
          <mxGeometry width="50" height="50" relative="1" as="geometry">
            <mxPoint x="572" y="716" as="sourcePoint" />
            <mxPoint x="692" y="682" as="targetPoint" />
          </mxGeometry>
        </mxCell>
        <mxCell id="jZfTcSRhd4EUPfGEfvjz-94" value="&lt;font style=&quot;font-size: 18px;&quot;&gt;+&lt;/font&gt;" style="ellipse;whiteSpace=wrap;html=1;aspect=fixed;" vertex="1" parent="1">
          <mxGeometry x="704" y="667" width="31" height="31" as="geometry" />
        </mxCell>
        <mxCell id="jZfTcSRhd4EUPfGEfvjz-95" value="" style="endArrow=classic;html=1;rounded=0;exitX=0.996;exitY=0.444;exitDx=0;exitDy=0;exitPerimeter=0;entryX=0.032;entryY=0.5;entryDx=0;entryDy=0;entryPerimeter=0;" edge="1" parent="1" source="jZfTcSRhd4EUPfGEfvjz-90" target="jZfTcSRhd4EUPfGEfvjz-94">
          <mxGeometry width="50" height="50" relative="1" as="geometry">
            <mxPoint x="613" y="822" as="sourcePoint" />
            <mxPoint x="716" y="698" as="targetPoint" />
          </mxGeometry>
        </mxCell>
        <mxCell id="jZfTcSRhd4EUPfGEfvjz-96" value="" style="endArrow=classic;html=1;rounded=0;exitX=1.004;exitY=0.428;exitDx=0;exitDy=0;exitPerimeter=0;entryX=0;entryY=0;entryDx=0;entryDy=0;" edge="1" parent="1" source="jZfTcSRhd4EUPfGEfvjz-91" target="jZfTcSRhd4EUPfGEfvjz-94">
          <mxGeometry width="50" height="50" relative="1" as="geometry">
            <mxPoint x="614" y="691" as="sourcePoint" />
            <mxPoint x="715" y="693" as="targetPoint" />
          </mxGeometry>
        </mxCell>
        <mxCell id="jZfTcSRhd4EUPfGEfvjz-97" value="" style="endArrow=classic;html=1;rounded=0;exitX=1;exitY=0.5;exitDx=0;exitDy=0;" edge="1" parent="1" source="jZfTcSRhd4EUPfGEfvjz-94">
          <mxGeometry width="50" height="50" relative="1" as="geometry">
            <mxPoint x="614" y="691" as="sourcePoint" />
            <mxPoint x="768" y="683" as="targetPoint" />
          </mxGeometry>
        </mxCell>
        <mxCell id="jZfTcSRhd4EUPfGEfvjz-98" value="&lt;font style=&quot;font-size: 18px;&quot;&gt;y&lt;/font&gt;" style="text;html=1;align=center;verticalAlign=middle;resizable=0;points=[];autosize=1;strokeColor=none;fillColor=none;" vertex="1" parent="1">
          <mxGeometry x="773" y="664" width="27" height="34" as="geometry" />
        </mxCell>
      </root>
    </mxGraphModel>
  </diagram>
</mxfile>
